Coordinates
version=1
nRows=6
nColumns=36
inDegrees=yes

Units are S.I. units (second, meters, Newtons, ...)
If the header above contains a line with 'inDegrees', this indicates whether rotational values are in degrees (yes) or radians (no).

endheader
time	pelvis_tilt	pelvis_list	pelvis_rotation	pelvis_tx	pelvis_ty	pelvis_tz	hip_flexion_r	hip_adduction_r	hip_rotation_r	knee_angle_r	knee_angle_r_beta	ankle_angle_r	subtalar_angle_r	mtp_angle_r	hip_flexion_l	hip_adduction_l	hip_rotation_l	knee_angle_l	knee_angle_l_beta	ankle_angle_l	subtalar_angle_l	mtp_angle_l	lumbar_extension	lumbar_bending	lumbar_rotation	arm_flex_r	arm_add_r	arm_rot_r	elbow_flex_r	pro_sup_r	arm_flex_l	arm_add_l	arm_rot_l	elbow_flex_l	pro_sup_l
      0.00000000	      6.42207855	     -3.42950235	      4.22642647	      0.61034941	      1.02808799	      0.85082922	     15.23370581	      2.24933442	     -8.82608200	     10.66279349	      0.18610085	      0.14707400	     -3.63886251	     -7.17617220	    -15.16090989	     -8.51199173	     -7.59208177	     28.00922063	      0.48885312	      1.88898799	     -6.97217157	     -7.17617220	    -19.83194659	      6.53148748	     -1.73836637	      1.57733564	     -9.63467677	    -13.12432333	     20.97077512	     89.04839514	     21.73843645	    -13.12614167	      6.04326783	     36.60183336	     86.51858255
      0.01666670	      6.53082028	     -3.35330203	      2.95551073	      0.61076403	      1.02329484	      0.85255748	     14.89211822	      2.61041330	     -9.29152880	     12.00814797	      0.20958172	     -2.56453447	     -7.30245918	     -7.25034165	    -12.91412929	     -8.48125613	     -7.61646649	     34.48777507	      0.60192523	     -6.15957532	    -10.04947987	     -7.25034165	    -20.04632102	      6.71840260	     -1.02188199	      1.51140809	     -9.22850119	    -14.45761616	     22.41917183	     85.88618868	     20.24618868	    -12.80962550	      3.32445407	     39.93665780	     83.19974166
      0.03333330	      6.18985290	     -2.94902725	      1.96616311	      0.61064991	      1.02054888	      0.85549930	     15.04837367	      2.36892679	     -8.15977131	     12.76198215	      0.22273861	     -4.15927380	     -8.01592628	     -7.25573842	    -10.51864591	     -8.57224216	     -8.14779825	     39.65291754	      0.69207397	    -13.73870001	     -9.58131324	     -7.25573842	    -19.44987320	      6.60316132	     -0.11002424	      1.29711607	     -9.23926040	    -14.57624977	     22.49123393	     85.69523493	     19.39938956	    -12.36635136	      2.62346069	     40.45288938	     82.92447537
      0.05000000	      5.70371878	     -2.98526055	      1.88508079	      0.61173004	      1.01932590	      0.85789055	     15.17882303	      2.46736659	     -8.43410683	     13.30435253	      0.23220476	     -4.05200216	     -8.17835687	     -7.26551463	     -8.17243182	     -9.07968034	     -8.00487437	     43.77940094	      0.76409469	    -18.31841785	    -10.06564301	     -7.26551463	    -19.00623072	      7.00701782	      0.34079722	      1.01389946	     -9.19428720	    -14.75703569	     23.18436471	     85.13217387	     18.28550192	    -11.46684447	      1.01594799	     41.17709251	     82.23070615
      0.06666670	      5.36718130	     -3.18096797	      1.81814215	      0.61398679	      1.02061587	      0.86067268	     15.07194525	      2.76623015	     -8.56475523	     13.95426028	      0.24354779	     -3.74003142	     -8.08550460	     -7.28223041	     -6.22076236	     -9.51629694	     -7.56209450	     46.94597381	      0.81936181	    -20.51136412	    -10.55435501	     -7.28223041	    -18.72931205	      7.50380939	      0.29431684	      1.33293812	     -9.16052149	    -14.41097143	     23.37265335	     84.28005913	     16.66043073	    -10.64946810	     -1.65362616	     41.86178468	     81.12127489
      0.08333330	      5.31589228	     -3.51061201	      1.77176620	      0.61680703	      1.02419511	      0.86369093	     14.46271591	      3.25498744	     -8.71079377	     14.47203001	      0.25258457	     -3.48049306	     -8.36054277	     -7.31626902	     -4.80801165	     -9.86079321	     -6.72845805	     49.27164720	      0.85995247	    -21.29517287	    -10.94030612	     -7.31626902	    -18.68011070	      8.03594943	     -0.44067567	      2.67770827	     -9.36243619	    -11.61576468	     22.29257679	     83.37007968	     14.58018859	    -10.10392741	     -4.54310810	     42.63908016	     79.85408054
